<svg width="5580" height="1483" viewBox="0 0 5580 1483" fill="none" xmlns="http://www.w3.org/2000/svg">
<g clip-path="url(#clip0_4_154)">
<rect width="5579.05" height="1482.59" rx="154.808" fill="#E8E2D5"/>
<rect x="4215.76" y="360.518" width="2137.5" height="179.79" fill="#DFD6C3"/>
<rect x="5494.26" y="380.495" width="1538.2" height="199.766" transform="rotate(90 5494.26 380.495)" fill="#DFD6C3"/>
<rect x="5319.67" y="457.253" width="1813.41" height="189.036" transform="rotate(119.376 5319.67 457.253)" fill="#DFD6C3"/>
<rect x="5321.32" y="1275.7" width="540.853" height="189.036" transform="rotate(-180 5321.32 1275.7)" fill="#DFD6C3"/>
<rect x="5321.32" y="1543.5" width="714.136" height="189.036" transform="rotate(-180 5321.32 1543.5)" fill="#DFD6C3"/>
<circle cx="5254.54" cy="1131.29" r="1283.87" stroke="#DFD6C3" stroke-width="189.036"/>
<path d="M2253.13 952.447V631.558H2129.95V587.454H2430.05V631.558H2306.87V952.447H2253.13Z" fill="#B9955D"/>
<path d="M2823.52 957.517C2785.33 957.517 2752.38 949.913 2724.67 934.705C2696.96 919.159 2675.5 897.529 2660.29 869.817C2645.42 842.104 2637.98 809.492 2637.98 771.979C2637.98 734.803 2645.42 702.022 2660.29 673.633C2675.5 644.907 2696.45 622.602 2723.15 606.718C2749.85 590.496 2780.6 582.385 2815.41 582.385C2843.12 582.385 2868.13 587.623 2890.44 598.1C2913.08 608.239 2931.5 622.433 2945.69 640.682C2960.23 658.932 2968.84 680.054 2971.55 704.049H2917.81C2914.43 680.73 2903.62 662.312 2885.37 648.793C2867.12 634.937 2844.31 628.009 2816.93 628.009C2791.92 628.009 2770.13 633.923 2751.54 645.752C2732.95 657.58 2718.42 674.14 2707.94 695.431C2697.8 716.723 2692.73 741.9 2692.73 770.965C2692.73 800.367 2697.97 825.714 2708.45 847.005C2718.93 867.958 2734.13 884.18 2754.07 895.671C2774.35 906.823 2798.68 912.399 2827.07 912.399C2847.35 912.399 2865.26 909.527 2880.81 903.782C2896.35 898.036 2909.87 889.587 2921.36 878.435L2973.58 898.205C2954.65 917.807 2932.85 932.677 2908.18 942.816C2883.51 952.616 2855.29 957.517 2823.52 957.517ZM2919.84 898.205V786.173L2935.56 801.888H2826.56V757.277H2973.58V898.205H2919.84ZM3040.83 952.447V587.454H3094.57V952.447H3040.83ZM3271.44 952.447V631.558H3148.25V587.454H3448.36V631.558H3325.17V952.447H3271.44Z" fill="#B9955D"/>
<rect x="2612.82" y="604.161" width="411.503" height="44.6285" transform="rotate(119.376 2612.82 604.161)" fill="#B9955D"/>
<rect x="2613.21" y="797.383" width="127.687" height="44.6285" transform="rotate(-180 2613.21 797.383)" fill="#B9955D"/>
<rect x="2613.21" y="860.607" width="168.597" height="44.6285" transform="rotate(-180 2613.21 860.607)" fill="#B9955D"/>
<rect x="168.766" y="183.692" width="237.756" height="19.9982" fill="#B9955D"/>
<rect x="310.975" y="185.915" width="171.096" height="22.2202" transform="rotate(90 310.975 185.915)" fill="#B9955D"/>
<rect x="406.522" y="357.011" width="117.767" height="22.2202" transform="rotate(-180 406.522 357.011)" fill="#B9955D"/>
<rect x="291.554" y="194.453" width="201.708" height="21.0267" transform="rotate(119.376 291.554 194.453)" fill="#B9955D"/>
<rect x="390.968" y="341.455" width="59.9946" height="24.4423" transform="rotate(-90 390.968 341.455)" fill="#B9955D"/>
<rect x="291.739" y="315.276" width="79.4341" height="21.0267" transform="rotate(-180 291.739 315.276)" fill="#B9955D"/>
<rect x="291.79" y="284.385" width="63.5715" height="20.9412" transform="rotate(-180 291.79 284.385)" fill="#B9955D"/>
<rect x="419.854" y="290.349" width="53.3285" height="22.2202" transform="rotate(-180 419.854 290.349)" fill="#B9955D"/>
<circle cx="284.311" cy="269.426" r="142.806" stroke="#B9955D" stroke-width="21.0267"/>
<path d="M2620.13 1296.73V1292.2H2676.23V1296.73H2650.62V1372.26H2645.74V1296.73H2620.13ZM2694.04 1372.26V1292.2H2698.92V1329.92H2747.16V1292.2H2752.05V1372.26H2747.16V1334.46H2698.92V1372.26H2694.04ZM2775.2 1372.26V1292.2H2819.77V1296.73H2780.09V1329.92H2817.39V1334.46H2780.09V1367.72H2820.71V1372.26H2775.2ZM2875.88 1292.2V1372.26H2870.99V1292.2H2875.88ZM2921.26 1372.26H2899.05V1292.2H2922.98C2930.48 1292.2 2936.91 1293.79 2942.25 1296.96C2947.59 1300.14 2951.69 1304.71 2954.53 1310.65C2957.39 1316.56 2958.81 1323.67 2958.79 1331.95C2958.76 1340.42 2957.28 1347.67 2954.33 1353.69C2951.39 1359.68 2947.12 1364.28 2941.55 1367.49C2935.97 1370.67 2929.21 1372.26 2921.26 1372.26ZM2903.94 1367.72H2921.06C2928.2 1367.72 2934.22 1366.3 2939.12 1363.46C2944.02 1360.6 2947.72 1356.49 2950.23 1351.15C2952.75 1345.81 2954 1339.41 2953.98 1331.95C2953.98 1324.6 2952.77 1318.31 2950.34 1313.07C2947.92 1307.81 2944.39 1303.77 2939.75 1300.95C2935.14 1298.14 2929.48 1296.73 2922.78 1296.73H2903.94V1367.72ZM2977.86 1372.26V1292.2H3022.42V1296.73H2982.74V1329.92H3020.04V1334.46H2982.74V1367.72H3023.36V1372.26H2977.86ZM3103.86 1292.2V1372.26H3099.09L3048.04 1301.07H3047.57V1372.26H3042.68V1292.2H3047.49L3098.55 1363.46H3099.02V1292.2H3103.86ZM3121.65 1296.73V1292.2H3177.75V1296.73H3152.14V1372.26H3147.26V1296.73H3121.65ZM3200.44 1292.2V1372.26H3195.56V1292.2H3200.44ZM3223.62 1372.26V1292.2H3268.3V1296.73H3228.5V1329.92H3264.59V1334.46H3228.5V1372.26H3223.62ZM3293.01 1292.2V1372.26H3288.12V1292.2H3293.01ZM3377.17 1317.22H3372.16C3371.64 1314.5 3370.66 1311.89 3369.23 1309.36C3367.8 1306.8 3365.95 1304.51 3363.68 1302.48C3361.44 1300.42 3358.83 1298.79 3355.86 1297.59C3352.89 1296.39 3349.6 1295.79 3346.01 1295.79C3340.74 1295.79 3335.9 1297.2 3331.47 1300.01C3327.06 1302.8 3323.53 1306.91 3320.87 1312.33C3318.24 1317.75 3316.92 1324.38 3316.92 1332.23C3316.92 1340.12 3318.24 1346.78 3320.87 1352.2C3323.53 1357.62 3327.06 1361.73 3331.47 1364.52C3335.9 1367.28 3340.74 1368.66 3346.01 1368.66C3349.6 1368.66 3352.89 1368.08 3355.86 1366.9C3358.83 1365.7 3361.44 1364.09 3363.68 1362.06C3365.95 1360 3367.8 1357.69 3369.23 1355.14C3370.66 1352.58 3371.64 1349.95 3372.16 1347.24H3377.17C3376.59 1350.47 3375.48 1353.64 3373.84 1356.74C3372.23 1359.84 3370.09 1362.65 3367.43 1365.18C3364.8 1367.68 3361.68 1369.68 3358.09 1371.16C3354.52 1372.62 3350.49 1373.35 3346.01 1373.35C3339.34 1373.35 3333.46 1371.66 3328.38 1368.27C3323.29 1364.86 3319.31 1360.06 3316.41 1353.88C3313.55 1347.71 3312.11 1340.49 3312.11 1332.23C3312.11 1323.97 3313.55 1316.75 3316.41 1310.57C3319.31 1304.39 3323.29 1299.61 3328.38 1296.22C3333.46 1292.81 3339.34 1291.1 3346.01 1291.1C3350.49 1291.1 3354.52 1291.84 3358.09 1293.33C3361.68 1294.79 3364.8 1296.77 3367.43 1299.27C3370.09 1301.75 3372.23 1304.54 3373.84 1307.64C3375.48 1310.74 3376.59 1313.93 3377.17 1317.22ZM3392.86 1372.26H3387.7L3416.59 1292.2H3422.22L3451.11 1372.26H3445.95L3419.6 1298.49H3419.21L3392.86 1372.26ZM3400.17 1342.12H3438.64V1346.65H3400.17V1342.12ZM3451.38 1296.73V1292.2H3507.47V1296.73H3481.87V1372.26H3476.98V1296.73H3451.38ZM3530.17 1292.2V1372.26H3525.28V1292.2H3530.17ZM3617.02 1332.23C3617.02 1340.49 3615.59 1347.71 3612.72 1353.88C3609.86 1360.04 3605.87 1364.82 3600.76 1368.23C3595.68 1371.65 3589.81 1373.35 3583.17 1373.35C3576.5 1373.35 3570.61 1371.65 3565.5 1368.23C3560.42 1364.79 3556.44 1360 3553.58 1353.85C3550.71 1347.67 3549.27 1340.46 3549.27 1332.23C3549.27 1323.97 3550.71 1316.76 3553.58 1310.61C3556.47 1304.46 3560.46 1299.68 3565.54 1296.26C3570.62 1292.82 3576.5 1291.1 3583.17 1291.1C3589.81 1291.1 3595.68 1292.81 3600.76 1296.22C3605.87 1299.64 3609.86 1304.43 3612.72 1310.61C3615.59 1316.76 3617.02 1323.97 3617.02 1332.23ZM3612.25 1332.23C3612.25 1324.8 3611 1318.36 3608.5 1312.91C3606.03 1307.47 3602.6 1303.26 3598.22 1300.29C3593.84 1297.29 3588.82 1295.79 3583.17 1295.79C3577.51 1295.79 3572.5 1297.28 3568.12 1300.25C3563.74 1303.19 3560.3 1307.4 3557.8 1312.88C3555.32 1318.32 3554.08 1324.77 3554.08 1332.23C3554.08 1339.6 3555.31 1346.03 3557.76 1351.5C3560.23 1356.95 3563.66 1361.17 3568.04 1364.17C3572.42 1367.16 3577.46 1368.66 3583.17 1368.66C3588.82 1368.66 3593.84 1367.18 3598.22 1364.21C3602.6 1361.21 3606.03 1356.99 3608.5 1351.54C3611 1346.09 3612.25 1339.65 3612.25 1332.23ZM3697.3 1292.2V1372.26H3692.53L3641.48 1301.07H3641.01V1372.26H3636.12V1292.2H3640.93L3691.99 1363.46H3692.45V1292.2H3697.3ZM3756.26 1292.2V1372.26H3751.37V1292.2H3756.26ZM3840.61 1292.2V1372.26H3835.84L3784.78 1301.07H3784.31V1372.26H3779.43V1292.2H3784.24L3835.29 1363.46H3835.76V1292.2H3840.61ZM3863.71 1372.26V1292.2H3908.4V1296.73H3868.6V1329.92H3904.68V1334.46H3868.6V1372.26H3863.71ZM3928.22 1372.26V1292.2H3952.89C3957.94 1292.2 3962.29 1293.19 3965.94 1295.17C3969.59 1297.15 3972.39 1299.9 3974.35 1303.42C3976.3 1306.91 3977.28 1310.97 3977.28 1315.61C3977.28 1320.2 3976.3 1324.24 3974.35 1327.73C3972.39 1331.2 3969.59 1333.91 3965.94 1335.86C3962.32 1337.82 3957.98 1338.79 3952.92 1338.79H3930.84V1334.22H3952.81C3956.93 1334.22 3960.44 1333.45 3963.36 1331.91C3966.28 1330.38 3968.52 1328.23 3970.09 1325.46C3971.65 1322.68 3972.43 1319.39 3972.43 1315.61C3972.43 1311.81 3971.65 1308.5 3970.09 1305.68C3968.52 1302.84 3966.27 1300.64 3963.32 1299.08C3960.4 1297.51 3956.89 1296.73 3952.77 1296.73H3933.1V1372.26H3928.22ZM3961.1 1335.98L3980.8 1372.26H3975.17L3955.58 1335.98H3961.1ZM3993.72 1372.26H3988.56L4017.45 1292.2H4023.08L4051.97 1372.26H4046.81L4020.46 1298.49H4020.07L3993.72 1372.26ZM4001.03 1342.12H4039.5V1346.65H4001.03V1342.12ZM4110.06 1312.21C4109.64 1307.23 4107.61 1303.21 4103.96 1300.13C4100.34 1297.06 4095.65 1295.52 4089.89 1295.52C4086.01 1295.52 4082.55 1296.23 4079.53 1297.67C4076.51 1299.1 4074.13 1301.06 4072.41 1303.53C4070.69 1306.01 4069.83 1308.85 4069.83 1312.05C4069.83 1314.11 4070.22 1315.98 4071.01 1317.65C4071.81 1319.29 4072.95 1320.76 4074.41 1322.06C4075.87 1323.34 4077.6 1324.46 4079.61 1325.42C4081.61 1326.39 4083.83 1327.24 4086.25 1327.97L4095.01 1330.55C4098.01 1331.46 4100.77 1332.51 4103.3 1333.71C4105.85 1334.91 4108.07 1336.34 4109.94 1338.01C4111.85 1339.65 4113.32 1341.58 4114.36 1343.8C4115.43 1346.01 4115.96 1348.57 4115.96 1351.46C4115.96 1355.68 4114.87 1359.46 4112.68 1362.8C4110.52 1366.13 4107.43 1368.77 4103.42 1370.7C4099.43 1372.6 4094.72 1373.55 4089.3 1373.55C4084.14 1373.55 4079.65 1372.68 4075.82 1370.93C4072.01 1369.18 4069 1366.76 4066.78 1363.66C4064.57 1360.53 4063.32 1356.93 4063.03 1352.87H4068.04C4068.3 1356.18 4069.35 1359.05 4071.2 1361.47C4073.08 1363.87 4075.57 1365.72 4078.67 1367.02C4081.77 1368.32 4085.32 1368.97 4089.3 1368.97C4093.6 1368.97 4097.39 1368.25 4100.68 1366.79C4103.96 1365.3 4106.53 1363.24 4108.38 1360.61C4110.23 1357.98 4111.16 1354.91 4111.16 1351.42C4111.16 1348.61 4110.49 1346.2 4109.16 1344.19C4107.83 1342.18 4105.87 1340.45 4103.26 1338.99C4100.68 1337.53 4097.47 1336.23 4093.64 1335.08L4084.3 1332.27C4078.04 1330.36 4073.26 1327.77 4069.95 1324.49C4066.67 1321.2 4065.03 1317.11 4065.03 1312.21C4065.03 1308.09 4066.12 1304.44 4068.31 1301.27C4070.5 1298.06 4073.47 1295.54 4077.22 1293.72C4081 1291.9 4085.26 1290.98 4090.01 1290.98C4094.78 1290.98 4098.98 1291.91 4102.63 1293.76C4106.28 1295.58 4109.18 1298.1 4111.31 1301.3C4113.45 1304.48 4114.64 1308.12 4114.87 1312.21H4110.06ZM4129.96 1296.73V1292.2H4186.06V1296.73H4160.45V1372.26H4155.57V1296.73H4129.96ZM4203.87 1372.26V1292.2H4228.53C4233.59 1292.2 4237.94 1293.19 4241.59 1295.17C4245.24 1297.15 4248.04 1299.9 4250 1303.42C4251.95 1306.91 4252.93 1310.97 4252.93 1315.61C4252.93 1320.2 4251.95 1324.24 4250 1327.73C4248.04 1331.2 4245.24 1333.91 4241.59 1335.86C4237.97 1337.82 4233.63 1338.79 4228.57 1338.79H4206.49V1334.22H4228.46C4232.57 1334.22 4236.09 1333.45 4239.01 1331.91C4241.93 1330.38 4244.17 1328.23 4245.74 1325.46C4247.3 1322.68 4248.08 1319.39 4248.08 1315.61C4248.08 1311.81 4247.3 1308.5 4245.74 1305.68C4244.17 1302.84 4241.92 1300.64 4238.97 1299.08C4236.05 1297.51 4232.53 1296.73 4228.42 1296.73H4208.75V1372.26H4203.87ZM4236.74 1335.98L4256.45 1372.26H4250.82L4231.23 1335.98H4236.74ZM4326.68 1292.2H4331.56V1345.21C4331.56 1350.65 4330.3 1355.51 4327.77 1359.79C4325.24 1364.04 4321.75 1367.4 4317.3 1369.87C4312.87 1372.32 4307.77 1373.55 4302.01 1373.55C4296.28 1373.55 4291.18 1372.32 4286.72 1369.87C4282.27 1367.4 4278.76 1364.02 4276.21 1359.75C4273.68 1355.47 4272.43 1350.63 4272.46 1345.21V1292.2H4277.34V1344.93C4277.34 1349.55 4278.38 1353.65 4280.47 1357.25C4282.58 1360.84 4285.49 1363.68 4289.19 1365.77C4292.89 1367.83 4297.16 1368.86 4302.01 1368.86C4306.86 1368.86 4311.13 1367.83 4314.83 1365.77C4318.53 1363.68 4321.43 1360.84 4323.51 1357.25C4325.62 1353.65 4326.68 1349.55 4326.68 1344.93V1292.2ZM4415.68 1317.22H4410.68C4410.16 1314.5 4409.18 1311.89 4407.75 1309.36C4406.31 1306.8 4404.46 1304.51 4402.2 1302.48C4399.96 1300.42 4397.35 1298.79 4394.38 1297.59C4391.41 1296.39 4388.12 1295.79 4384.53 1295.79C4379.26 1295.79 4374.41 1297.2 4369.98 1300.01C4365.58 1302.8 4362.05 1306.91 4359.39 1312.33C4356.76 1317.75 4355.44 1324.38 4355.44 1332.23C4355.44 1340.12 4356.76 1346.78 4359.39 1352.2C4362.05 1357.62 4365.58 1361.73 4369.98 1364.52C4374.41 1367.28 4379.26 1368.66 4384.53 1368.66C4388.12 1368.66 4391.41 1368.08 4394.38 1366.9C4397.35 1365.7 4399.96 1364.09 4402.2 1362.06C4404.46 1360 4406.31 1357.69 4407.75 1355.14C4409.18 1352.58 4410.16 1349.95 4410.68 1347.24H4415.68C4415.11 1350.47 4414 1353.64 4412.36 1356.74C4410.75 1359.84 4408.61 1362.65 4405.95 1365.18C4403.32 1367.68 4400.2 1369.68 4396.61 1371.16C4393.04 1372.62 4389.01 1373.35 4384.53 1373.35C4377.85 1373.35 4371.98 1371.66 4366.9 1368.27C4361.81 1364.86 4357.83 1360.06 4354.93 1353.88C4352.07 1347.71 4350.63 1340.49 4350.63 1332.23C4350.63 1323.97 4352.07 1316.75 4354.93 1310.57C4357.83 1304.39 4361.81 1299.61 4366.9 1296.22C4371.98 1292.81 4377.85 1291.1 4384.53 1291.1C4389.01 1291.1 4393.04 1291.84 4396.61 1293.33C4400.2 1294.79 4403.32 1296.77 4405.95 1299.27C4408.61 1301.75 4410.75 1304.54 4412.36 1307.64C4414 1310.74 4415.11 1313.93 4415.68 1317.22ZM4429.15 1296.73V1292.2H4485.25V1296.73H4459.64V1372.26H4454.76V1296.73H4429.15ZM4557.28 1292.2H4562.17V1345.21C4562.17 1350.65 4560.9 1355.51 4558.38 1359.79C4555.85 1364.04 4552.36 1367.4 4547.9 1369.87C4543.47 1372.32 4538.37 1373.55 4532.61 1373.55C4526.88 1373.55 4521.78 1372.32 4517.33 1369.87C4512.87 1367.4 4509.37 1364.02 4506.81 1359.75C4504.28 1355.47 4503.03 1350.63 4503.06 1345.21V1292.2H4507.94V1344.93C4507.94 1349.55 4508.99 1353.65 4511.07 1357.25C4513.18 1360.84 4516.09 1363.68 4519.79 1365.77C4523.49 1367.83 4527.77 1368.86 4532.61 1368.86C4537.46 1368.86 4541.73 1367.83 4545.44 1365.77C4549.14 1363.68 4552.03 1360.84 4554.11 1357.25C4556.23 1353.65 4557.28 1349.55 4557.28 1344.93V1292.2ZM4585.3 1372.26V1292.2H4609.97C4615.03 1292.2 4619.38 1293.19 4623.03 1295.17C4626.68 1297.15 4629.48 1299.9 4631.43 1303.42C4633.39 1306.91 4634.36 1310.97 4634.36 1315.61C4634.36 1320.2 4633.39 1324.24 4631.43 1327.73C4629.48 1331.2 4626.68 1333.91 4623.03 1335.86C4619.4 1337.82 4615.06 1338.79 4610.01 1338.79H4587.92V1334.22H4609.89C4614.01 1334.22 4617.53 1333.45 4620.45 1331.91C4623.37 1330.38 4625.61 1328.23 4627.17 1325.46C4628.73 1322.68 4629.52 1319.39 4629.52 1315.61C4629.52 1311.81 4628.73 1308.5 4627.17 1305.68C4625.61 1302.84 4623.35 1300.64 4620.41 1299.08C4617.49 1297.51 4613.97 1296.73 4609.85 1296.73H4590.19V1372.26H4585.3ZM4618.18 1335.98L4637.88 1372.26H4632.25L4612.67 1335.98H4618.18ZM4653.89 1372.26V1292.2H4698.46V1296.73H4658.78V1329.92H4696.07V1334.46H4658.78V1367.72H4699.4V1372.26H4653.89ZM4813.36 1332.23C4813.36 1340.49 4811.93 1347.71 4809.06 1353.88C4806.2 1360.04 4802.21 1364.82 4797.1 1368.23C4792.02 1371.65 4786.15 1373.35 4779.51 1373.35C4772.84 1373.35 4766.95 1371.65 4761.84 1368.23C4756.76 1364.79 4752.78 1360 4749.91 1353.85C4747.05 1347.67 4745.61 1340.46 4745.61 1332.23C4745.61 1323.97 4747.05 1316.76 4749.91 1310.61C4752.81 1304.46 4756.79 1299.68 4761.88 1296.26C4766.96 1292.82 4772.84 1291.1 4779.51 1291.1C4786.15 1291.1 4792.02 1292.81 4797.1 1296.22C4802.21 1299.64 4806.2 1304.43 4809.06 1310.61C4811.93 1316.76 4813.36 1323.97 4813.36 1332.23ZM4808.59 1332.23C4808.59 1324.8 4807.34 1318.36 4804.84 1312.91C4802.36 1307.47 4798.94 1303.26 4794.56 1300.29C4790.18 1297.29 4785.16 1295.79 4779.51 1295.79C4773.85 1295.79 4768.84 1297.28 4764.46 1300.25C4760.08 1303.19 4756.64 1307.4 4754.14 1312.88C4751.66 1318.32 4750.42 1324.77 4750.42 1332.23C4750.42 1339.6 4751.65 1346.03 4754.1 1351.5C4756.57 1356.95 4760 1361.17 4764.38 1364.17C4768.76 1367.16 4773.8 1368.66 4779.51 1368.66C4785.16 1368.66 4790.18 1367.18 4794.56 1364.21C4798.94 1361.21 4802.36 1356.99 4804.84 1351.54C4807.34 1346.09 4808.59 1339.65 4808.59 1332.23ZM4832.46 1372.26V1292.2H4877.14V1296.73H4837.35V1329.92H4873.43V1334.46H4837.35V1372.26H4832.46ZM4958.89 1372.26V1292.2H4963.78V1367.72H5002.87V1372.26H4958.89ZM5075.04 1292.2H5079.92V1345.21C5079.92 1350.65 5078.66 1355.51 5076.13 1359.79C5073.6 1364.04 5070.11 1367.4 5065.65 1369.87C5061.22 1372.32 5056.13 1373.55 5050.37 1373.55C5044.63 1373.55 5039.54 1372.32 5035.08 1369.87C5030.62 1367.4 5027.12 1364.02 5024.57 1359.75C5022.04 1355.47 5020.79 1350.63 5020.81 1345.21V1292.2H5025.7V1344.93C5025.7 1349.55 5026.74 1353.65 5028.83 1357.25C5030.94 1360.84 5033.84 1363.68 5037.54 1365.77C5041.25 1367.83 5045.52 1368.86 5050.37 1368.86C5055.21 1368.86 5059.49 1367.83 5063.19 1365.77C5066.89 1363.68 5069.78 1360.84 5071.87 1357.25C5073.98 1353.65 5075.04 1349.55 5075.04 1344.93V1292.2ZM5100.87 1292.2L5124.52 1328.43H5124.95L5148.6 1292.2H5154.5L5128.19 1332.23L5154.5 1372.26H5148.6L5124.95 1336.25H5124.52L5100.87 1372.26H5094.96L5121.51 1332.23L5094.96 1292.2H5100.87ZM5223.82 1292.2H5228.71V1345.21C5228.71 1350.65 5227.45 1355.51 5224.92 1359.79C5222.39 1364.04 5218.9 1367.4 5214.44 1369.87C5210.01 1372.32 5204.92 1373.55 5199.16 1373.55C5193.42 1373.55 5188.33 1372.32 5183.87 1369.87C5179.41 1367.4 5175.91 1364.02 5173.36 1359.75C5170.83 1355.47 5169.58 1350.63 5169.6 1345.21V1292.2H5174.49V1344.93C5174.49 1349.55 5175.53 1353.65 5177.62 1357.25C5179.73 1360.84 5182.63 1363.68 5186.33 1365.77C5190.04 1367.83 5194.31 1368.86 5199.16 1368.86C5204 1368.86 5208.28 1367.83 5211.98 1365.77C5215.68 1363.68 5218.57 1360.84 5220.66 1357.25C5222.77 1353.65 5223.82 1349.55 5223.82 1344.93V1292.2ZM5251.85 1372.26V1292.2H5276.51C5281.57 1292.2 5285.92 1293.19 5289.57 1295.17C5293.22 1297.15 5296.02 1299.9 5297.98 1303.42C5299.93 1306.91 5300.91 1310.97 5300.91 1315.61C5300.91 1320.2 5299.93 1324.24 5297.98 1327.73C5296.02 1331.2 5293.22 1333.91 5289.57 1335.86C5285.95 1337.82 5281.61 1338.79 5276.55 1338.79H5254.46V1334.22H5276.43C5280.55 1334.22 5284.07 1333.45 5286.99 1331.91C5289.91 1330.38 5292.15 1328.23 5293.71 1325.46C5295.28 1322.68 5296.06 1319.39 5296.06 1315.61C5296.06 1311.81 5295.28 1308.5 5293.71 1305.68C5292.15 1302.84 5289.9 1300.64 5286.95 1299.08C5284.03 1297.51 5280.51 1296.73 5276.4 1296.73H5256.73V1372.26H5251.85ZM5284.72 1335.98L5304.43 1372.26H5298.8L5279.21 1335.98H5284.72ZM5308.86 1292.2H5314.65L5339.86 1330.82H5340.41L5365.63 1292.2H5371.41L5342.6 1335.94V1372.26H5337.67V1335.94L5308.86 1292.2Z" fill="#676767"/>
</g>
<defs>
<clipPath id="clip0_4_154">
<rect width="5579.05" height="1482.59" rx="154.808" fill="white"/>
</clipPath>
</defs>
</svg>
