<svg width="1352" height="618" viewBox="0 0 1352 618" fill="none" xmlns="http://www.w3.org/2000/svg">
<path d="M139.407 491V170.11H16.2219V126.007H316.327V170.11H193.142V491H139.407Z" fill="#B9955D"/>
<path d="M709.797 496.069C671.608 496.069 638.657 488.465 610.945 473.257C583.232 457.711 561.772 436.082 546.564 408.37C531.694 380.657 524.259 348.044 524.259 310.531C524.259 273.356 531.694 240.574 546.564 212.186C561.772 183.46 582.725 161.155 609.424 145.271C636.122 129.049 666.876 120.938 701.686 120.938C729.398 120.938 754.407 126.176 776.712 136.653C799.355 146.791 817.774 160.986 831.968 179.235C846.5 197.485 855.118 218.607 857.822 242.602H804.087C800.707 219.283 789.892 200.864 771.643 187.346C753.393 173.49 730.581 166.562 703.207 166.562C678.198 166.562 656.4 172.476 637.812 184.305C619.224 196.133 604.692 212.693 594.216 233.984C584.077 255.275 579.008 280.453 579.008 309.517C579.008 338.92 584.246 364.266 594.723 385.558C605.199 406.511 620.407 422.733 640.347 434.223C660.624 445.376 684.957 450.952 713.345 450.952C733.623 450.952 751.534 448.08 767.08 442.334C782.626 436.589 796.145 428.14 807.635 416.988L859.849 436.758C840.924 456.359 819.126 471.23 794.455 481.368C769.784 491.169 741.565 496.069 709.797 496.069ZM806.114 436.758V324.725L821.829 340.44H712.838V295.83H859.849V436.758H806.114ZM927.105 491V126.007H980.84V491H927.105ZM1157.71 491V170.11H1034.53V126.007H1334.63V170.11H1211.45V491H1157.71Z" fill="#B9955D"/>
<rect x="499.091" y="142.714" width="411.503" height="44.6285" transform="rotate(119.376 499.091 142.714)" fill="#B9955D"/>
<rect x="499.483" y="335.936" width="127.687" height="44.6285" transform="rotate(-180 499.483 335.936)" fill="#B9955D"/>
<rect x="499.483" y="399.16" width="168.597" height="44.6285" transform="rotate(-180 499.483 399.16)" fill="#B9955D"/>
</svg>
